<svg xmlns="http://www.w3.org/2000/svg" version="1.1" xmlns:xlink="http://www.w3.org/1999/xlink" xmlns:svgjs="http://svgjs.dev/svgjs" width="1000" height="1000" viewBox="0 0 1000 1000"><rect width="1000" height="1000" fill="#ffffff"></rect><g transform="matrix(0.7,0,0,0.7,149.57576803447716,386.66228489488367)"><svg viewBox="0 0 396 128" data-background-color="#ffffff" preserveAspectRatio="xMidYMid meet" height="323" width="1000" xmlns="http://www.w3.org/2000/svg" xmlns:xlink="http://www.w3.org/1999/xlink"><g id="tight-bounds" transform="matrix(1,0,0,1,0.23999408335293992,0.1628816163418776)"><svg viewBox="0 0 395.52 127.67423676731627" height="127.67423676731627" width="395.52"><g><svg viewBox="0 0 548.9902326285505 177.2145756056877" height="127.67423676731627" width="395.52"><g><rect width="8.252428924922288" height="128.871670393427" x="123.61458662267974" y="24.17145260613036" fill="#3886ce" opacity="1" stroke-width="0" stroke="transparent" fill-opacity="1" class="rect-o-0" data-fill-palette-color="secondary" rx="1%" id="o-0" data-palette-color="#3886ce"></rect></g><g transform="matrix(1,0,0,1,153.47023262855043,24.49202890064136)"><svg viewBox="0 0 395.52000000000004 128.230517804405" height="128.230517804405" width="395.52000000000004"><g><svg viewBox="0 0 395.52000000000004 128.230517804405" height="128.230517804405" width="395.52000000000004"><g><svg viewBox="0 0 395.52000000000004 91.50958623895863" height="91.50958623895863" width="395.52000000000004"><g transform="matrix(1,0,0,1,0,0)"><svg width="395.52000000000004" viewBox="4.320000171661377 -36.11000061035156 157.5399932861328 36.45000076293945" height="91.50958623895863" data-palette-color="#202046"><g class="undefined-text-0" data-fill-palette-color="primary" id="text-0"><path d="M25.24-2.22L25.24-2.22Q26.54-2.22 26.54-1.12L26.54-1.12Q26.54-0.68 26.01-0.34 25.49 0 24.15 0L24.15 0 4.32 0 4.32-34.55 16.77-34.55 16.77-1.61 21.34-1.61Q22.88-1.61 23.99-1.92 25.1-2.22 25.24-2.22ZM44.14-4.35L37.3-4.35Q32.83-4.35 31.2-4.42L31.2-4.42 30.49-2.73Q30.17-2.03 29.9-1.25L29.9-1.25Q29.34 0.27 28.34 0.27L28.34 0.27Q27.88 0.27 27.59-0.02 27.29-0.32 27.29-0.63L27.29-0.63Q27.29-1.17 27.76-1.83L27.76-1.83Q28.49-2.86 29.2-4.52L29.2-4.52Q27.1-4.71 27.1-5.74 27.1-6.76 28.29-6.76L28.29-6.76Q29.03-6.76 30-6.52L30-6.52 42.19-36.11 58.88 0 46.16 0 44.14-4.35ZM37.23-19.29L31.98-6.32Q34.32-6.13 36.18-6.13L36.18-6.13 43.33-6.13 37.23-19.29ZM80.44-10.13L80.44-10.13 82.61-10.03Q87.35-10.03 90.42-13.16L90.42-13.16Q93.55-16.31 93.7-21.31L93.7-21.31Q93.96-29.03 86.27-31.74L86.27-31.74Q83.39-32.76 78.78-32.76L78.78-32.76 76.73-32.76 76.73 0 64.28 0 64.28-34.55 73.63-34.55Q81.2-34.55 82.76-34.33 84.32-34.11 86.02-33.76 87.71-33.42 89.68-32.28 91.65-31.13 93.01-29.54L93.01-29.54Q95.77-26.32 95.67-21.97L95.67-21.97Q95.53-16.43 92.43-12.74L92.43-12.74Q89.28-9.03 83.74-8.15L83.74-8.15Q82.12-7.93 81.2-7.93L81.2-7.93Q79-7.93 79-9.13L79-9.13Q79-9.57 79.39-9.85 79.78-10.13 80.44-10.13ZM101.31 0L101.31-34.55 113.76-34.55 113.76-24.44 122.45-31.01Q124.28-32.4 125.11-33.28 125.94-34.16 126.15-34.34 126.36-34.52 126.53-34.62L126.53-34.62Q126.82-34.81 127.28-34.81 127.73-34.81 128-34.56 128.26-34.3 128.26-34 128.26-33.69 128.19-33.48 128.12-33.28 127.9-33.01L127.9-33.01Q127.41-32.42 126.04-31.37L126.04-31.37 120.57-27.22 129.73-4.83Q130-4.2 130.24-3.71L130.24-3.71 130.63-2.83 131.07-2Q131.24-1.66 131.36-1.34 131.49-1.03 131.46-0.73 131.44-0.44 131.29-0.2L131.29-0.2Q130.95 0.34 130.46 0.34L130.46 0.34Q129.78 0.34 129.44-0.05L129.44-0.05Q129-0.59 128.78-1.25L128.78-1.25 128.34-2.61Q128.12-3.3 127.75-4.25L127.75-4.25 118.89-25.95 113.76-22.07 113.76 0 101.31 0ZM161.86-33.91L161.86-33.91Q161.86-32.79 159.49-32.79L159.49-32.79 153.82-32.79 153.82 0 141.32 0 141.32-32.79 137.66-32.79Q135.78-32.79 135.07-32.62L135.07-32.62Q134.15-32.42 133.73-32.42L133.73-32.42Q132.49-32.42 132.49-33.4L132.49-33.4Q132.49-34.55 134.9-34.55L134.9-34.55 156.68-34.55Q158.36-34.55 159.17-34.69L159.17-34.69Q160.15-34.86 160.63-34.86L160.63-34.86Q161.86-34.86 161.86-33.91Z" fill="#202046" data-fill-palette-color="primary"></path></g></svg></g></svg></g><g transform="matrix(1,0,0,1,0,113.11280331990703)"><svg viewBox="0 0 395.52000000000004 15.117714484497979" height="15.117714484497979" width="395.52000000000004"><g transform="matrix(1,0,0,1,0,0)"><svg width="395.52000000000004" viewBox="2.9800000190734863 -37.54999923706055 1133.1505126953125 42.91999816894531" height="15.117714484497979" data-palette-color="#3886ce"><g class="undefined-text-1" data-fill-palette-color="secondary" id="text-1"><path d="M26.27-10.35L27-1.22Q21.19-0.78 15.45-0.39 9.72 0 3.91 0.34L3.91 0.34Q3.66-8.98 3.52-18.19 3.37-27.39 2.98-36.77L2.98-36.77Q6.25-36.82 9.42-36.96 12.6-37.11 15.82-37.35L15.82-37.35Q15.28-33.74 14.82-30.1 14.36-26.46 14.11-22.8L14.11-22.8Q13.92-19.73 13.79-16.67 13.67-13.62 13.57-10.55L13.57-10.55Q16.8-10.45 19.95-10.45 23.1-10.45 26.27-10.35L26.27-10.35ZM38.77-32.67L38.77-32.67Q38.77-31.69 38.35-30.83 37.94-29.98 37.23-29.35 36.52-28.71 35.64-28.34 34.76-27.98 33.88-27.98L33.88-27.98Q32.91-27.98 32.05-28.42 31.2-28.86 30.56-29.54 29.93-30.22 29.59-31.13 29.25-32.03 29.25-32.96L29.25-32.96Q29.25-33.89 29.61-34.69 29.98-35.5 30.59-36.08 31.2-36.67 32-37.01 32.81-37.35 33.74-37.35L33.74-37.35Q34.67-37.35 35.57-36.99 36.47-36.62 37.18-35.96 37.89-35.3 38.33-34.45 38.77-33.59 38.77-32.67ZM40.77-24.37L40.77-24.37Q40.52-21.78 40.38-19.24 40.23-16.7 40.09-14.16L40.09-14.16Q39.89-11.18 39.43-8.25 38.96-5.32 38.38-2.39L38.38-2.39 30.91-1.61Q30.91-3.17 30.93-4.69 30.95-6.2 30.95-7.76L30.95-7.76Q30.95-11.77 30.81-15.77 30.66-19.78 30.52-23.78L30.52-23.78Q33.1-23.88 35.62-24.07 38.13-24.27 40.77-24.37ZM78.36-17.29L78.36-17.29Q78.36-15.23 78.34-13.21 78.32-11.18 78.32-9.13L78.32-9.13Q78.27-8.06 78.29-6.93 78.32-5.81 78.22-4.69L78.22-4.69Q78.07-3.61 77.92-2.42 77.78-1.22 77.44-0.05 77.09 1.12 76.53 2.15 75.97 3.17 75.04 3.91L75.04 3.91Q74.8 4.1 74.07 4.25 73.33 4.39 72.36 4.54 71.38 4.69 70.26 4.79 69.14 4.88 68.11 4.96 67.08 5.03 66.25 5.1 65.42 5.18 65.08 5.18L65.08 5.18Q62.01 5.27 59 5.32 56 5.37 52.92 5.37L52.92 5.37 49.8 5.37Q49.7 4.54 49.6 3.66 49.51 2.78 49.51 1.9L49.51 1.9Q49.51 0.93 49.31-0.12 49.12-1.17 48.87-2.2L48.87-2.2 52.09-2.15Q52.39-2.15 53.73-2.17 55.07-2.2 56.88-2.22 58.69-2.25 60.76-2.32 62.84-2.39 64.59-2.54 66.35-2.69 67.6-2.88 68.84-3.08 68.99-3.32L68.99-3.32Q69.38-3.96 69.48-4.76 69.58-5.57 69.58-6.3L69.58-6.3Q69.58-6.69 69.55-7.1 69.53-7.52 69.48-7.91L69.48-7.91Q66.74-7.71 64.06-7.57 61.37-7.42 58.59-7.42L58.59-7.42Q57.95-7.42 57-7.42 56.05-7.42 55.05-7.47 54.05-7.52 53.1-7.62 52.14-7.71 51.56-7.91L51.56-7.91Q50.58-8.2 49.58-8.57 48.58-8.94 47.7-9.47 46.82-10.01 46.16-10.77 45.5-11.52 45.26-12.6L45.26-12.6Q45.11-13.13 45.09-13.77 45.06-14.4 45.06-14.94L45.06-14.94Q45.06-16.31 45.21-18.41 45.36-20.51 45.72-22.68 46.09-24.85 46.7-26.78 47.31-28.71 48.24-29.69L48.24-29.69Q48.77-30.27 49.97-30.71 51.17-31.15 52.68-31.45 54.19-31.74 55.88-31.96 57.56-32.18 59.17-32.28 60.79-32.37 62.13-32.42 63.47-32.47 64.25-32.47L64.25-32.47Q66.99-32.47 69.72-32.32L69.72-32.32 70.06-35.45 78.27-34.23Q78.32-29.98 78.34-25.78 78.36-21.58 78.36-17.29ZM69.72-18.21L69.72-18.21Q69.72-19.78 69.67-21.26 69.62-22.75 69.53-24.32L69.53-24.32Q67.38-24.8 65.23-25.1 63.08-25.39 60.83-25.39L60.83-25.39Q60.44-25.39 59.66-25.34 58.88-25.29 58.03-25.17 57.17-25.05 56.44-24.83 55.71-24.61 55.41-24.32L55.41-24.32Q54.98-23.83 54.88-23.19 54.78-22.56 54.78-21.92L54.78-21.92Q54.78-21.39 54.9-20.29 55.02-19.19 55.22-18.02 55.41-16.85 55.71-15.82 56-14.79 56.29-14.4L56.29-14.4Q56.59-14.01 57.03-13.82 57.47-13.62 57.98-13.55 58.49-13.48 59-13.45 59.52-13.43 59.91-13.43L59.91-13.43Q60.88-13.43 62.28-13.5 63.67-13.57 65.06-13.77 66.45-13.96 67.67-14.33 68.89-14.7 69.53-15.33L69.53-15.33Q69.62-15.38 69.67-15.82 69.72-16.26 69.72-16.75 69.72-17.24 69.72-17.68 69.72-18.12 69.72-18.21ZM116.64-19.04L116.64-19.04Q116.64-17.24 116.42-15.41 116.2-13.57 115.96-11.77L115.96-11.77Q115.57-8.59 115.08-5.49 114.59-2.39 114.1 0.78L114.1 0.78Q111.71 0.83 109.42 0.98 107.12 1.12 104.78 1.32L104.78 1.32Q104.78-2.25 104.78-5.74 104.78-9.23 104.63-12.74L104.63-12.74Q104.63-13.43 104.61-14.5 104.58-15.58 104.39-16.26L104.39-16.26Q104.09-17.38 103.65-17.8 103.22-18.21 101.95-18.21L101.95-18.21Q101.07-18.21 99.89-18.02 98.72-17.82 97.5-17.53 96.28-17.24 95.18-16.87 94.08-16.5 93.35-16.11L93.35-16.11Q92.96-12.16 92.4-8.25 91.84-4.35 91.69-0.34L91.69-0.34 84.81-0.68Q84.27-9.47 83.78-18.19 83.29-26.9 82.85-35.69L82.85-35.69 93.6-36.38Q93.5-33.15 93.4-29.96 93.3-26.76 93.21-23.54L93.21-23.54Q94.13-24.32 95.31-24.73 96.48-25.15 97.72-25.29 98.97-25.44 100.24-25.44 101.51-25.44 102.68-25.44L102.68-25.44Q104.44-25.44 106.66-25.32 108.88-25.2 110.91-24.63 112.93-24.07 114.49-22.85 116.06-21.63 116.59-19.43L116.59-19.43Q116.64-19.34 116.64-19.24 116.64-19.14 116.64-19.04ZM144.91-8.64L144.91-8.64 144.08-0.05Q142.52 0.05 140.96 0.12 139.39 0.2 137.83 0.2L137.83 0.2Q137 0.2 135.63 0.15 134.27 0.1 132.8-0.02 131.34-0.15 130.02-0.37 128.7-0.59 127.92-0.93L127.92-0.93Q126.75-1.46 125.99-2.34 125.23-3.22 124.75-4.27 124.26-5.32 123.96-6.52 123.67-7.71 123.53-8.89L123.53-8.89Q123.38-10.01 123.31-11.3 123.23-12.6 123.21-13.96 123.18-15.33 123.18-16.63 123.18-17.92 123.18-19.04L123.18-19.04 123.18-20.51 120.16-20.51Q120.35-22.71 120.38-24.85 120.4-27 120.6-29.2L120.6-29.2 123.53-29.1 123.53-36.33Q126.31-35.79 129.07-35.77 131.83-35.74 134.61-35.55L134.61-35.55 134.51-28.08 138.61-27.83Q138.61-27.49 138.64-27.2 138.66-26.9 138.66-26.56L138.66-26.56Q138.66-25.2 138.44-23.9 138.22-22.61 137.88-21.29L137.88-21.29 134.32-21.29Q134.22-19.04 134.17-16.8 134.12-14.55 134.12-12.3L134.12-12.3Q134.12-11.23 134.19-10.38 134.27-9.52 134.58-8.94 134.9-8.35 135.63-8.06 136.37-7.76 137.69-7.76L137.69-7.76Q139.49-7.76 141.3-8.01 143.11-8.25 144.91-8.64ZM178.75-33.45L186.02-33.3Q184.61-26.42 183.31-19.58 182.02-12.74 180.55-5.86L180.55-5.86 170.4-5.76 166.69-18.95 158.19-5.76 147.11-4.93Q146.72-8.3 146.28-11.72 145.84-15.14 145.3-18.51L145.3-18.51Q144.76-22.02 144.23-25.46 143.69-28.91 143.15-32.37L143.15-32.37 153.21-32.67 156.43-17.38Q157.41-19.58 158.43-21.73 159.46-23.88 160.49-26.07L160.49-26.07Q161.56-28.52 162.83-30.71L162.83-30.71 168.35-30.62Q169.76-27.05 171.11-23.51 172.45-19.97 174.01-16.5L174.01-16.5Q174.89-18.85 175.55-20.87 176.21-22.9 176.75-24.88 177.28-26.86 177.77-28.93 178.26-31.01 178.75-33.45L178.75-33.45ZM222.2-18.12L222.2-18.12Q215.81-17.77 209.46-17.55 203.11-17.33 196.71-17.09L196.71-17.09Q196.66-16.89 196.66-16.7 196.66-16.5 196.66-16.31L196.66-16.31Q196.66-14.65 197.42-13.77 198.18-12.89 199.3-12.52 200.42-12.16 201.79-12.11 203.16-12.06 204.33-12.06L204.33-12.06Q207.6-12.06 210.87-12.28 214.15-12.5 217.47-12.74L217.47-12.74 217.86-4.98Q214.63-4.83 211.44-4.74 208.24-4.64 205.01-4.64L205.01-4.64Q204.33-4.64 202.5-4.66 200.67-4.69 198.59-4.81 196.52-4.93 194.71-5.13 192.9-5.32 192.32-5.66L192.32-5.66Q190.81-6.54 189.95-7.91 189.1-9.28 188.63-10.89 188.17-12.5 188-14.18 187.83-15.87 187.78-17.43L187.78-17.43Q187.73-17.68 187.75-17.94 187.78-18.21 187.78-18.46L187.78-18.46Q187.78-21.04 188.34-23.27 188.9-25.49 190.41-27.59L190.41-27.59Q191.44-29.05 193.44-30.03 195.44-31.01 197.79-31.57 200.13-32.13 202.48-32.35 204.82-32.57 206.53-32.57L206.53-32.57Q208.04-32.57 210.24-32.3 212.44-32.03 214.61-31.4 216.78-30.76 218.54-29.76 220.3-28.76 220.93-27.29L220.93-27.29Q221.03-27 221.15-26.29 221.27-25.59 221.42-24.68 221.57-23.78 221.69-22.75 221.81-21.73 221.91-20.8 222.01-19.87 222.08-19.14 222.15-18.41 222.2-18.12ZM199.25-21.14L215.56-21.68Q215.27-23.83 214.46-25.07 213.66-26.32 212.46-26.93 211.26-27.54 209.73-27.71 208.19-27.88 206.43-27.88L206.43-27.88Q205.84-27.88 204.97-27.86 204.09-27.83 203.21-27.71 202.33-27.59 201.55-27.34 200.77-27.1 200.33-26.66L200.33-26.66Q199.99-26.37 199.77-25.85 199.55-25.34 199.4-24.76 199.25-24.17 199.18-23.61 199.11-23.05 199.11-22.66L199.11-22.66Q199.11-21.88 199.25-21.14L199.25-21.14ZM234.26-32.67L234.26-32.67Q234.26-31.69 233.84-30.83 233.43-29.98 232.72-29.35 232.01-28.71 231.13-28.34 230.26-27.98 229.38-27.98L229.38-27.98Q228.4-27.98 227.55-28.42 226.69-28.86 226.06-29.54 225.42-30.22 225.08-31.13 224.74-32.03 224.74-32.96L224.74-32.96Q224.74-33.89 225.1-34.69 225.47-35.5 226.08-36.08 226.69-36.67 227.5-37.01 228.3-37.35 229.23-37.35L229.23-37.35Q230.16-37.35 231.06-36.99 231.96-36.62 232.67-35.96 233.38-35.3 233.82-34.45 234.26-33.59 234.26-32.67ZM236.26-24.37L236.26-24.37Q236.02-21.78 235.87-19.24 235.72-16.7 235.58-14.16L235.58-14.16Q235.38-11.18 234.92-8.25 234.46-5.32 233.87-2.39L233.87-2.39 226.4-1.61Q226.4-3.17 226.42-4.69 226.45-6.2 226.45-7.76L226.45-7.76Q226.45-11.77 226.3-15.77 226.15-19.78 226.01-23.78L226.01-23.78Q228.6-23.88 231.11-24.07 233.63-24.27 236.26-24.37ZM273.86-17.29L273.86-17.29Q273.86-15.23 273.83-13.21 273.81-11.18 273.81-9.13L273.81-9.13Q273.76-8.06 273.78-6.93 273.81-5.81 273.71-4.69L273.71-4.69Q273.56-3.61 273.42-2.42 273.27-1.22 272.93-0.05 272.59 1.12 272.03 2.15 271.46 3.17 270.54 3.91L270.54 3.91Q270.29 4.1 269.56 4.25 268.83 4.39 267.85 4.54 266.87 4.69 265.75 4.79 264.63 4.88 263.6 4.96 262.58 5.03 261.75 5.1 260.92 5.18 260.58 5.18L260.58 5.18Q257.5 5.27 254.5 5.32 251.49 5.37 248.42 5.37L248.42 5.37 245.29 5.37Q245.19 4.54 245.1 3.66 245 2.78 245 1.9L245 1.9Q245 0.93 244.8-0.12 244.61-1.17 244.36-2.2L244.36-2.2 247.59-2.15Q247.88-2.15 249.22-2.17 250.57-2.2 252.37-2.22 254.18-2.25 256.25-2.32 258.33-2.39 260.09-2.54 261.85-2.69 263.09-2.88 264.34-3.08 264.48-3.32L264.48-3.32Q264.87-3.96 264.97-4.76 265.07-5.57 265.07-6.3L265.07-6.3Q265.07-6.69 265.04-7.1 265.02-7.52 264.97-7.91L264.97-7.91Q262.24-7.71 259.55-7.57 256.86-7.42 254.08-7.42L254.08-7.42Q253.45-7.42 252.49-7.42 251.54-7.42 250.54-7.47 249.54-7.52 248.59-7.62 247.64-7.71 247.05-7.91L247.05-7.91Q246.07-8.2 245.07-8.57 244.07-8.94 243.19-9.47 242.31-10.01 241.65-10.77 241-11.52 240.75-12.6L240.75-12.6Q240.61-13.13 240.58-13.77 240.56-14.4 240.56-14.94L240.56-14.94Q240.56-16.31 240.7-18.41 240.85-20.51 241.22-22.68 241.58-24.85 242.19-26.78 242.8-28.71 243.73-29.69L243.73-29.69Q244.27-30.27 245.46-30.71 246.66-31.15 248.17-31.45 249.69-31.74 251.37-31.96 253.06-32.18 254.67-32.28 256.28-32.37 257.62-32.42 258.96-32.47 259.75-32.47L259.75-32.47Q262.48-32.47 265.21-32.32L265.21-32.32 265.56-35.45 273.76-34.23Q273.81-29.98 273.83-25.78 273.86-21.58 273.86-17.29ZM265.21-18.21L265.21-18.21Q265.21-19.78 265.17-21.26 265.12-22.75 265.02-24.32L265.02-24.32Q262.87-24.8 260.72-25.1 258.57-25.39 256.33-25.39L256.33-25.39Q255.94-25.39 255.16-25.34 254.37-25.29 253.52-25.17 252.67-25.05 251.93-24.83 251.2-24.61 250.91-24.32L250.91-24.32Q250.47-23.83 250.37-23.19 250.27-22.56 250.27-21.92L250.27-21.92Q250.27-21.39 250.4-20.29 250.52-19.19 250.71-18.02 250.91-16.85 251.2-15.82 251.49-14.79 251.79-14.4L251.79-14.4Q252.08-14.01 252.52-13.82 252.96-13.62 253.47-13.55 253.98-13.48 254.5-13.45 255.01-13.43 255.4-13.43L255.4-13.43Q256.38-13.43 257.77-13.5 259.16-13.57 260.55-13.77 261.94-13.96 263.16-14.33 264.38-14.7 265.02-15.33L265.02-15.33Q265.12-15.38 265.17-15.82 265.21-16.26 265.21-16.75 265.21-17.24 265.21-17.68 265.21-18.12 265.21-18.21ZM312.14-19.04L312.14-19.04Q312.14-17.24 311.92-15.41 311.7-13.57 311.45-11.77L311.45-11.77Q311.06-8.59 310.57-5.49 310.08-2.39 309.6 0.78L309.6 0.78Q307.2 0.83 304.91 0.98 302.61 1.12 300.27 1.32L300.27 1.32Q300.27-2.25 300.27-5.74 300.27-9.23 300.12-12.74L300.12-12.74Q300.12-13.43 300.1-14.5 300.08-15.58 299.88-16.26L299.88-16.26Q299.59-17.38 299.15-17.8 298.71-18.21 297.44-18.21L297.44-18.21Q296.56-18.21 295.39-18.02 294.22-17.82 293-17.53 291.77-17.24 290.68-16.87 289.58-16.5 288.84-16.11L288.84-16.11Q288.45-12.16 287.89-8.25 287.33-4.35 287.18-0.34L287.18-0.34 280.3-0.68Q279.76-9.47 279.27-18.19 278.79-26.9 278.35-35.69L278.35-35.69 289.09-36.38Q288.99-33.15 288.89-29.96 288.8-26.76 288.7-23.54L288.7-23.54Q289.63-24.32 290.8-24.73 291.97-25.15 293.21-25.29 294.46-25.44 295.73-25.44 297-25.44 298.17-25.44L298.17-25.44Q299.93-25.44 302.15-25.32 304.37-25.2 306.4-24.63 308.42-24.07 309.99-22.85 311.55-21.63 312.09-19.43L312.09-19.43Q312.14-19.34 312.14-19.24 312.14-19.14 312.14-19.04ZM340.4-8.64L340.4-8.64 339.57-0.05Q338.01 0.05 336.45 0.12 334.89 0.2 333.32 0.2L333.32 0.2Q332.49 0.2 331.13 0.15 329.76 0.1 328.3-0.02 326.83-0.15 325.51-0.37 324.19-0.59 323.41-0.93L323.41-0.93Q322.24-1.46 321.48-2.34 320.73-3.22 320.24-4.27 319.75-5.32 319.46-6.52 319.16-7.71 319.02-8.89L319.02-8.89Q318.87-10.01 318.8-11.3 318.73-12.6 318.7-13.96 318.68-15.33 318.68-16.63 318.68-17.92 318.68-19.04L318.68-19.04 318.68-20.51 315.65-20.51Q315.84-22.71 315.87-24.85 315.89-27 316.09-29.2L316.09-29.2 319.02-29.1 319.02-36.33Q321.8-35.79 324.56-35.77 327.32-35.74 330.1-35.55L330.1-35.55 330-28.08 334.11-27.83Q334.11-27.49 334.13-27.2 334.15-26.9 334.15-26.56L334.15-26.56Q334.15-25.2 333.93-23.9 333.72-22.61 333.37-21.29L333.37-21.29 329.81-21.29Q329.71-19.04 329.66-16.8 329.61-14.55 329.61-12.3L329.61-12.3Q329.61-11.23 329.69-10.38 329.76-9.52 330.08-8.94 330.39-8.35 331.13-8.06 331.86-7.76 333.18-7.76L333.18-7.76Q334.98-7.76 336.79-8.01 338.6-8.25 340.4-8.64Z" fill="#202046" data-fill-palette-color="primary"></path><path d="M380.313-0.15L380.313-0.15 372.893 0.98Q372.113-1.51 371.333-3.98 370.553-6.45 369.813-8.94L369.813-8.94 357.803-8.5 356.293-2 348.773-2Q349.453-10.3 350.193-18.51 350.923-26.71 351.603-34.96L351.603-34.96Q355.123-35.55 358.613-35.94 362.103-36.33 365.663-36.33L365.663-36.33Q370.013-36.33 374.363-36.18L374.363-36.18Q375.143-31.1 375.893-26.05 376.653-21 377.483-15.92L377.483-15.92Q378.073-11.91 378.773-8.01 379.483-4.1 380.313-0.15ZM358.733-15.33L368.113-15.58Q368.063-16.02 367.863-17.21 367.673-18.41 367.423-19.75 367.183-21.09 366.863-22.19 366.543-23.29 366.253-23.49L366.253-23.49Q366.153-23.54 365.793-23.58 365.423-23.63 365.013-23.68 364.593-23.73 364.203-23.73 363.813-23.73 363.663-23.73L363.663-23.73Q363.423-23.73 363.003-23.73 362.593-23.73 362.123-23.71 361.663-23.68 361.253-23.58 360.833-23.49 360.683-23.34L360.683-23.34Q360.593-23.29 360.443-22.71 360.293-22.12 360.073-21.26 359.853-20.41 359.633-19.43 359.413-18.46 359.223-17.58 359.023-16.7 358.903-16.06 358.783-15.43 358.733-15.33L358.733-15.33ZM417.273-2.49L417.273-2.49 409.023-2.15 408.443-7.08Q407.513-5.81 406.213-4.93 404.923-4.05 403.433-3.52 401.943-2.98 400.353-2.76 398.773-2.54 397.253-2.54L397.253-2.54Q396.083-2.54 394.353-2.73 392.613-2.93 390.833-3.3 389.053-3.66 387.543-4.25 386.023-4.83 385.343-5.62L385.343-5.62Q384.803-6.2 384.533-7.5 384.273-8.79 384.173-10.25 384.073-11.72 384.073-13.09 384.073-14.45 384.073-15.28L384.073-15.28Q384.073-18.95 384.363-22.51 384.663-26.07 385.193-29.59L385.193-29.59Q386.563-29.74 388.123-29.74L388.123-29.74Q389.393-29.74 390.663-29.57 391.933-29.39 393.203-29.15L393.203-29.15Q393.203-28.91 393.253-27.73 393.303-26.56 393.373-24.95 393.453-23.34 393.543-21.51 393.643-19.68 393.763-18.12 393.883-16.55 394.063-15.45 394.233-14.36 394.423-14.26L394.423-14.26Q395.153-13.82 396.033-13.77 396.913-13.72 397.743-13.72L397.743-13.72Q398.333-13.72 399.573-13.79 400.823-13.87 402.143-14.04 403.453-14.21 404.583-14.48 405.703-14.75 406.093-15.14L406.093-15.14Q406.243-15.28 406.313-16.06 406.383-16.85 406.413-17.77 406.433-18.7 406.463-19.51 406.483-20.31 406.483-20.46L406.483-20.46Q406.483-22.66 406.383-24.8 406.293-26.95 406.193-29.15L406.193-29.15 415.663-29.59Q415.953-26.17 416.203-22.78 416.443-19.38 416.833-15.97L416.833-15.97Q416.983-14.84 417.003-13.67 417.033-12.5 417.083-11.33L417.083-11.33Q417.183-9.13 417.203-6.93 417.223-4.74 417.273-2.49ZM446.323-8.64L446.323-8.64 445.493-0.05Q443.933 0.05 442.373 0.12 440.813 0.2 439.243 0.2L439.243 0.2Q438.413 0.2 437.053 0.15 435.683 0.1 434.213-0.02 432.753-0.15 431.433-0.37 430.113-0.59 429.333-0.93L429.333-0.93Q428.163-1.46 427.403-2.34 426.653-3.22 426.163-4.27 425.673-5.32 425.383-6.52 425.083-7.71 424.943-8.89L424.943-8.89Q424.793-10.01 424.723-11.3 424.643-12.6 424.623-13.96 424.593-15.33 424.593-16.63 424.593-17.92 424.593-19.04L424.593-19.04 424.593-20.51 421.573-20.51Q421.763-22.71 421.793-24.85 421.813-27 422.013-29.2L422.013-29.2 424.943-29.1 424.943-36.33Q427.723-35.79 430.483-35.77 433.243-35.74 436.023-35.55L436.023-35.55 435.923-28.08 440.023-27.83Q440.023-27.49 440.053-27.2 440.073-26.9 440.073-26.56L440.073-26.56Q440.073-25.2 439.853-23.9 439.633-22.61 439.293-21.29L439.293-21.29 435.733-21.29Q435.633-19.04 435.583-16.8 435.533-14.55 435.533-12.3L435.533-12.3Q435.533-11.23 435.613-10.38 435.683-9.52 436.003-8.94 436.313-8.35 437.053-8.06 437.783-7.76 439.103-7.76L439.103-7.76Q440.903-7.76 442.713-8.01 444.523-8.25 446.323-8.64ZM482.363-19.34L482.363-19.34Q482.363-18.95 482.363-18.58 482.363-18.21 482.313-17.82L482.313-17.82Q482.263-17.14 482.063-15.58 481.873-14.01 481.533-12.33 481.183-10.64 480.703-9.23 480.213-7.81 479.623-7.42L479.623-7.42Q479.333-7.23 477.643-7.08 475.963-6.93 473.543-6.79 471.133-6.64 468.293-6.54 465.463-6.45 462.903-6.37 460.333-6.3 458.413-6.25 456.483-6.2 455.843-6.2L455.843-6.2Q455.553-6.2 454.843-6.2 454.133-6.2 453.353-6.23 452.573-6.25 451.893-6.3 451.203-6.35 450.913-6.45L450.913-6.45Q450.233-6.69 449.543-7.25 448.863-7.81 448.273-8.52 447.693-9.23 447.223-9.99 446.763-10.74 446.573-11.43L446.573-11.43Q446.423-11.96 446.323-13.06 446.223-14.16 446.173-15.36 446.133-16.55 446.103-17.68 446.083-18.8 446.083-19.38L446.083-19.38Q446.083-20.31 446.133-21.95 446.173-23.58 446.423-25.29 446.663-27 447.133-28.49 447.593-29.98 448.473-30.57L448.473-30.57Q448.863-30.81 449.933-31.01 451.013-31.2 452.473-31.35 453.943-31.49 455.603-31.57 457.263-31.64 458.853-31.67 460.433-31.69 461.803-31.69 463.173-31.69 464.003-31.64L464.003-31.64Q464.733-31.59 466.103-31.57 467.463-31.54 469.153-31.49 470.833-31.45 472.643-31.32 474.453-31.2 476.013-31.01 477.573-30.81 478.773-30.49 479.963-30.18 480.353-29.74L480.353-29.74Q480.993-29.05 481.383-27.69 481.773-26.32 481.993-24.78 482.213-23.24 482.283-21.75 482.363-20.26 482.363-19.34ZM472.003-18.31L472.003-18.31Q472.003-18.9 471.963-19.68 471.913-20.46 471.813-21.26 471.713-22.07 471.523-22.83 471.323-23.58 471.033-24.07L471.033-24.07Q470.643-24.71 469.513-25.05 468.393-25.39 467.053-25.56 465.713-25.73 464.413-25.78 463.123-25.83 462.483-25.83L462.483-25.83Q462.143-25.83 461.263-25.81 460.383-25.78 459.433-25.73 458.483-25.68 457.653-25.56 456.823-25.44 456.573-25.29L456.573-25.29Q456.143-25 455.893-24.39 455.653-23.78 455.523-23.05 455.403-22.31 455.383-21.61 455.353-20.9 455.353-20.46L455.353-20.46Q455.353-20.02 455.433-18.87 455.503-17.72 455.623-16.43 455.743-15.14 455.943-14.06 456.143-12.99 456.433-12.7L456.433-12.7Q456.773-12.3 457.723-12.06 458.673-11.82 459.773-11.65 460.873-11.47 461.903-11.4 462.923-11.33 463.363-11.33L463.363-11.33Q464.143-11.33 465.223-11.38 466.293-11.43 467.393-11.62 468.493-11.82 469.473-12.16 470.443-12.5 471.033-13.09L471.033-13.09Q471.373-13.43 471.573-14.11 471.763-14.79 471.863-15.58 471.963-16.36 471.983-17.11 472.003-17.87 472.003-18.31ZM533.533-12.35L533.533-12.35Q533.533-10.3 533.453-8.33 533.383-6.35 533.183-4.35L533.183-4.35Q531.133-4.25 529.253-4.13 527.373-4 525.323-3.61L525.323-3.61Q525.913-7.13 525.913-10.69L525.913-10.69Q525.913-11.33 525.813-12.87 525.713-14.4 525.543-16.09 525.373-17.77 525.103-19.19 524.833-20.61 524.493-21.04L524.493-21.04Q524.253-21.34 523.763-21.48 523.273-21.63 522.733-21.7 522.203-21.78 521.663-21.8 521.123-21.83 520.783-21.83L520.783-21.83Q520.203-21.83 519.393-21.78 518.583-21.73 517.753-21.61 516.923-21.48 516.173-21.24 515.413-21 514.923-20.65L514.923-20.65Q514.683-20.46 514.513-19.63 514.343-18.8 514.243-17.63 514.143-16.46 514.073-15.09 513.993-13.72 513.953-12.52 513.903-11.33 513.903-10.42 513.903-9.52 513.903-9.28L513.903-9.28Q513.903-6.05 514.043-2.83L514.043-2.83Q512.633-2.78 511.283-2.73 509.943-2.69 508.533-2.69L508.533-2.69Q508.383-2.69 508.133-2.69 507.893-2.69 507.653-2.73L507.653-2.73Q507.353-2.73 507.063-2.78L507.063-2.78 507.063-6.35Q507.063-7.86 507.013-9.47 506.963-11.08 506.913-12.3L506.913-12.3Q506.873-13.13 506.773-14.45 506.673-15.77 506.333-17.02 505.993-18.26 505.333-19.17 504.673-20.07 503.503-20.07L503.503-20.07Q502.963-20.07 502.063-19.9 501.153-19.73 500.203-19.46 499.253-19.19 498.443-18.82 497.643-18.46 497.293-18.07L497.293-18.07Q497.203-17.97 497.083-16.97 496.953-15.97 496.863-14.53 496.763-13.09 496.643-11.4 496.513-9.72 496.443-8.25 496.373-6.79 496.293-5.74 496.223-4.69 496.223-4.49L496.223-4.49Q495.243-4.39 494.243-4.32 493.243-4.25 492.273-4.25L492.273-4.25Q491.343-4.25 490.413-4.3 489.483-4.35 488.603-4.44L488.603-4.44Q488.363-10.64 487.903-16.7 487.433-22.75 486.893-28.96L486.893-28.96Q488.263-29.1 489.603-29.22 490.953-29.35 492.313-29.35L492.313-29.35Q493.633-29.35 494.953-29.3 496.273-29.25 497.643-29.2L497.643-29.2 497.003-25Q499.253-26.81 501.323-27.69 503.403-28.56 506.283-28.56L506.283-28.56Q507.403-28.56 508.263-28.3 509.113-28.03 509.823-27.56 510.533-27.1 511.213-26.46 511.893-25.83 512.683-25.1L512.683-25.1Q513.553-26.46 514.703-27.27 515.853-28.08 517.173-28.52 518.493-28.96 519.953-29.08 521.423-29.2 522.883-29.2L522.883-29.2Q524.053-29.2 525.353-29.13 526.643-29.05 527.843-28.71 529.033-28.37 530.013-27.69 530.993-27 531.523-25.83L531.523-25.83Q532.163-24.41 532.553-22.71 532.943-21 533.163-19.19 533.383-17.38 533.453-15.63 533.533-13.87 533.533-12.35ZM573.423-22.02L573.423-22.02Q573.423-17.92 573.123-13.87 572.833-9.81 572.543-5.76L572.543-5.76Q567.073-5.27 561.653-4.93 556.233-4.59 550.763-4.59L550.763-4.59Q550.273-4.59 548.953-4.61 547.633-4.64 546.173-4.71 544.703-4.79 543.393-4.91 542.073-5.03 541.633-5.27L541.633-5.27Q540.023-6.15 539.383-7.5 538.753-8.84 538.753-10.55L538.753-10.55Q538.753-11.13 538.803-12.11 538.853-13.09 538.993-14.16 539.143-15.23 539.383-16.16 539.633-17.09 539.973-17.53L539.973-17.53Q540.413-18.12 541.973-18.53 543.533-18.95 545.713-19.19 547.883-19.43 550.393-19.58 552.913-19.73 555.203-19.8 557.503-19.87 559.303-19.87 561.113-19.87 561.893-19.87L561.893-19.87Q562.043-20.95 562.043-21.97L562.043-21.97Q562.043-22.07 562.043-22.49 562.043-22.9 561.993-23L561.993-23Q561.843-23.29 561.063-23.49 560.283-23.68 559.133-23.78 557.993-23.88 556.643-23.95 555.303-24.02 554.033-24.02 552.763-24.02 551.783-24.02 550.813-24.02 550.373-24.02L550.373-24.02Q547.293-24.02 544.223-23.9 541.143-23.78 538.063-23.68L538.063-23.68Q538.263-25.54 538.383-27.44 538.503-29.35 538.413-31.2L538.413-31.2Q541.973-31.84 545.563-32.1 549.153-32.37 552.813-32.37L552.813-32.37Q554.133-32.37 555.693-32.35 557.253-32.32 558.823-32.25 560.383-32.18 561.923-32.03 563.453-31.88 564.773-31.64L564.773-31.64Q566.143-31.4 567.483-30.76 568.833-30.13 570.003-29.2 571.173-28.27 572.053-27.08 572.933-25.88 573.323-24.51L573.323-24.51Q573.373-24.37 573.393-24.02 573.423-23.68 573.423-23.27 573.423-22.85 573.423-22.51 573.423-22.17 573.423-22.02ZM562.533-10.55L562.533-10.55 562.533-16.8Q561.113-16.85 559.693-16.87 558.283-16.89 556.863-16.89L556.863-16.89Q556.573-16.89 555.233-16.87 553.883-16.85 552.353-16.75 550.813-16.65 549.543-16.5 548.273-16.36 548.073-16.06L548.073-16.06Q547.833-15.67 547.763-15.26 547.683-14.84 547.683-14.4L547.683-14.4Q547.683-14.06 547.733-13.48 547.783-12.89 547.903-12.26 548.023-11.62 548.173-11.08 548.323-10.55 548.563-10.3L548.563-10.3Q548.763-10.06 549.223-9.94 549.693-9.81 550.223-9.74 550.763-9.67 551.303-9.64 551.833-9.62 552.133-9.62L552.133-9.62Q553.303-9.62 554.643-9.72 555.983-9.81 557.383-9.94 558.773-10.06 560.093-10.23 561.403-10.4 562.533-10.55ZM602.423-8.64L602.423-8.64 601.593-0.05Q600.023 0.05 598.463 0.12 596.903 0.2 595.343 0.2L595.343 0.2Q594.513 0.2 593.143 0.15 591.773 0.1 590.313-0.02 588.843-0.15 587.523-0.37 586.213-0.59 585.423-0.93L585.423-0.93Q584.253-1.46 583.503-2.34 582.743-3.22 582.253-4.27 581.763-5.32 581.473-6.52 581.183-7.71 581.033-8.89L581.033-8.89Q580.883-10.01 580.813-11.3 580.743-12.6 580.713-13.96 580.693-15.33 580.693-16.63 580.693-17.92 580.693-19.04L580.693-19.04 580.693-20.51 577.663-20.51Q577.863-22.71 577.883-24.85 577.913-27 578.103-29.2L578.103-29.2 581.033-29.1 581.033-36.33Q583.813-35.79 586.573-35.77 589.333-35.74 592.113-35.55L592.113-35.55 592.023-28.08 596.123-27.83Q596.123-27.49 596.143-27.2 596.173-26.9 596.173-26.56L596.173-26.56Q596.173-25.2 595.953-23.9 595.733-22.61 595.393-21.29L595.393-21.29 591.823-21.29Q591.723-19.04 591.673-16.8 591.633-14.55 591.633-12.3L591.633-12.3Q591.633-11.23 591.703-10.38 591.773-9.52 592.093-8.94 592.413-8.35 593.143-8.06 593.873-7.76 595.193-7.76L595.193-7.76Q597.003-7.76 598.803-8.01 600.613-8.25 602.423-8.64ZM635.863-18.12L635.863-18.12Q629.473-17.77 623.123-17.55 616.773-17.33 610.373-17.09L610.373-17.09Q610.323-16.89 610.323-16.7 610.323-16.5 610.323-16.31L610.323-16.31Q610.323-14.65 611.083-13.77 611.843-12.89 612.963-12.52 614.083-12.16 615.453-12.11 616.823-12.06 617.993-12.06L617.993-12.06Q621.263-12.06 624.533-12.28 627.813-12.5 631.133-12.74L631.133-12.74 631.523-4.98Q628.293-4.83 625.103-4.74 621.903-4.64 618.673-4.64L618.673-4.64Q617.993-4.64 616.163-4.66 614.333-4.69 612.253-4.81 610.183-4.93 608.373-5.13 606.563-5.32 605.983-5.66L605.983-5.66Q604.473-6.54 603.613-7.91 602.763-9.28 602.293-10.89 601.833-12.5 601.663-14.18 601.493-15.87 601.443-17.43L601.443-17.43Q601.393-17.68 601.413-17.94 601.443-18.21 601.443-18.46L601.443-18.46Q601.443-21.04 602.003-23.27 602.563-25.49 604.073-27.59L604.073-27.59Q605.103-29.05 607.103-30.03 609.103-31.01 611.453-31.57 613.793-32.13 616.143-32.35 618.483-32.57 620.193-32.57L620.193-32.57Q621.703-32.57 623.903-32.3 626.103-32.03 628.273-31.4 630.443-30.76 632.203-29.76 633.963-28.76 634.593-27.29L634.593-27.29Q634.693-27 634.813-26.29 634.933-25.59 635.083-24.68 635.233-23.78 635.353-22.75 635.473-21.73 635.573-20.8 635.673-19.87 635.743-19.14 635.813-18.41 635.863-18.12ZM612.913-21.14L629.223-21.68Q628.933-23.83 628.123-25.07 627.323-26.32 626.123-26.93 624.923-27.54 623.393-27.71 621.853-27.88 620.093-27.88L620.093-27.88Q619.503-27.88 618.633-27.86 617.753-27.83 616.873-27.71 615.993-27.59 615.213-27.34 614.433-27.1 613.993-26.66L613.993-26.66Q613.643-26.37 613.433-25.85 613.213-25.34 613.063-24.76 612.913-24.17 612.843-23.61 612.773-23.05 612.773-22.66L612.773-22.66Q612.773-21.88 612.913-21.14L612.913-21.14ZM673.123-27.15L673.123-27.15Q673.123-25.1 673.123-23.1 673.123-21.09 673.023-19.04L673.023-19.04Q672.923-14.55 672.633-10.13 672.333-5.71 671.993-1.27L671.993-1.27Q667.553-0.98 663.203-0.78 658.863-0.59 654.413-0.59L654.413-0.59Q653.833-0.59 652.563-0.61 651.293-0.63 649.853-0.68 648.413-0.73 647.143-0.85 645.873-0.98 645.283-1.22L645.283-1.22Q641.523-2.59 639.693-4.91 637.863-7.23 637.863-11.33L637.863-11.33 637.863-12.11Q637.963-13.92 638.153-15.33 638.353-16.75 638.863-17.92 639.373-19.09 640.283-20.09 641.183-21.09 642.743-22.12L642.743-22.12Q643.823-22.85 645.283-23.34 646.753-23.83 648.333-24.17 649.923-24.51 651.463-24.66 653.003-24.8 654.273-24.8L654.273-24.8Q656.613-24.8 658.933-24.46 661.253-24.12 663.543-23.44L663.543-23.44Q663.303-26.66 663.133-29.81 662.963-32.96 662.623-36.13L662.623-36.13Q665.253-36.38 667.843-36.67 670.433-36.96 673.023-37.26L673.023-37.26Q673.073-34.72 673.093-32.2 673.123-29.69 673.123-27.15ZM665.643-12.4L665.643-12.4Q665.643-13.53 665.643-14.65 665.643-15.77 665.603-16.89L665.603-16.89Q662.523-17.04 659.443-17.04L659.443-17.04Q659.003-17.04 657.593-17.02 656.173-16.99 654.583-16.92 653.003-16.85 651.633-16.67 650.263-16.5 649.873-16.26L649.873-16.26Q649.143-15.72 648.973-14.75 648.803-13.77 648.803-12.94L648.803-12.94Q648.803-12.55 648.853-11.89 648.903-11.23 649.023-10.52 649.143-9.81 649.343-9.2 649.533-8.59 649.783-8.3L649.783-8.3Q649.923-8.15 650.293-8.06 650.653-7.96 651.093-7.91 651.533-7.86 651.953-7.86 652.363-7.86 652.613-7.86L652.613-7.86Q655.393-7.86 658.123-8.11 660.863-8.35 663.643-8.74L663.643-8.74Q664.033-8.84 664.573-8.86 665.113-8.89 665.553-9.03L665.553-9.03 665.553-9.13Q665.553-9.18 665.603-9.23L665.603-9.23Q665.693-10.01 665.673-10.79 665.643-11.57 665.643-12.4Z" fill="#3886ce" data-fill-palette-color="secondary"></path><path d="M716.947-24.51L716.947-24.51Q716.947-23.44 716.827-21.92 716.697-20.41 716.437-18.85 716.167-17.29 715.677-15.92 715.187-14.55 714.457-13.77L714.457-13.77Q714.167-13.43 712.577-13.11 710.987-12.79 708.767-12.48 706.547-12.16 704.007-11.87 701.467-11.57 699.197-11.35 696.927-11.13 695.267-10.99 693.607-10.84 693.167-10.84L693.167-10.84 692.777-0.68Q691.267-0.59 689.797-0.66 688.337-0.73 686.817-0.73L686.817-0.73Q685.847-0.73 684.867-0.68 683.887-0.63 682.917-0.54L682.917-0.54Q682.917-5.13 682.917-9.62 682.917-14.11 682.717-18.7L682.717-18.7Q682.567-22.85 682.447-26.95 682.327-31.05 682.227-35.21L682.227-35.21Q687.257-35.55 692.357-36.06 697.467-36.57 702.537-36.57L702.537-36.57Q703.417-36.57 705.327-36.4 707.227-36.23 709.327-35.86 711.427-35.5 713.207-34.96 714.997-34.42 715.577-33.74L715.577-33.74Q715.967-33.3 716.237-32.03 716.507-30.76 716.657-29.32 716.797-27.88 716.877-26.51 716.947-25.15 716.947-24.51ZM703.277-24.85L703.277-24.85Q703.277-25.29 703.227-25.98 703.177-26.66 703.057-27.32 702.937-27.98 702.687-28.54 702.447-29.1 702.057-29.35L702.057-29.35Q701.807-29.49 701.277-29.59 700.737-29.69 700.147-29.74 699.567-29.79 699.027-29.81 698.487-29.83 698.247-29.83L698.247-29.83Q696.437-29.83 694.627-29.64 692.827-29.44 690.967-29.15L690.967-29.15Q691.117-27.69 691.137-26.27 691.167-24.85 691.167-23.44L691.167-23.44Q691.167-21.14 691.307-18.8L691.307-18.8Q691.947-18.8 693.507-18.87 695.067-18.95 696.777-19.12 698.487-19.29 700.007-19.6 701.517-19.92 702.057-20.46L702.057-20.46Q702.937-21.29 703.107-22.49 703.277-23.68 703.277-24.85ZM721.677-36.52L732.567-37.55Q732.177-32.81 731.807-28.13 731.447-23.44 731.197-18.7L731.197-18.7Q730.957-14.4 730.687-10.18 730.417-5.96 730.177-1.66L730.177-1.66 722.707-1.27Q722.707-5.71 722.727-10.08 722.757-14.45 722.657-18.9L722.657-18.9Q722.557-23.34 722.267-27.71 721.977-32.08 721.677-36.52L721.677-36.52ZM771.437-22.02L771.437-22.02Q771.437-17.92 771.137-13.87 770.847-9.81 770.557-5.76L770.557-5.76Q765.087-5.27 759.667-4.93 754.247-4.59 748.777-4.59L748.777-4.59Q748.287-4.59 746.967-4.61 745.647-4.64 744.187-4.71 742.727-4.79 741.407-4.91 740.087-5.03 739.647-5.27L739.647-5.27Q738.037-6.15 737.397-7.5 736.767-8.84 736.767-10.55L736.767-10.55Q736.767-11.13 736.817-12.11 736.867-13.09 737.007-14.16 737.157-15.23 737.397-16.16 737.647-17.09 737.987-17.53L737.987-17.53Q738.427-18.12 739.987-18.53 741.547-18.95 743.727-19.19 745.897-19.43 748.407-19.58 750.927-19.73 753.217-19.8 755.517-19.87 757.317-19.87 759.127-19.87 759.907-19.87L759.907-19.87Q760.057-20.95 760.057-21.97L760.057-21.97Q760.057-22.07 760.057-22.49 760.057-22.9 760.007-23L760.007-23Q759.857-23.29 759.077-23.49 758.297-23.68 757.147-23.78 756.007-23.88 754.657-23.95 753.317-24.02 752.047-24.02 750.777-24.02 749.807-24.02 748.827-24.02 748.387-24.02L748.387-24.02Q745.307-24.02 742.237-23.9 739.157-23.78 736.077-23.68L736.077-23.68Q736.277-25.54 736.397-27.44 736.517-29.35 736.427-31.2L736.427-31.2Q739.987-31.84 743.577-32.1 747.167-32.37 750.827-32.37L750.827-32.37Q752.147-32.37 753.707-32.35 755.267-32.32 756.837-32.25 758.397-32.18 759.937-32.03 761.477-31.88 762.787-31.64L762.787-31.64Q764.157-31.4 765.497-30.76 766.847-30.13 768.017-29.2 769.187-28.27 770.067-27.08 770.947-25.88 771.337-24.51L771.337-24.51Q771.387-24.37 771.407-24.02 771.437-23.68 771.437-23.27 771.437-22.85 771.437-22.51 771.437-22.17 771.437-22.02ZM760.547-10.55L760.547-10.55 760.547-16.8Q759.127-16.85 757.717-16.87 756.297-16.89 754.877-16.89L754.877-16.89Q754.587-16.89 753.247-16.87 751.897-16.85 750.367-16.75 748.827-16.65 747.557-16.5 746.287-16.36 746.087-16.06L746.087-16.06Q745.847-15.67 745.777-15.26 745.697-14.84 745.697-14.4L745.697-14.4Q745.697-14.06 745.747-13.48 745.797-12.89 745.917-12.26 746.047-11.62 746.187-11.08 746.337-10.55 746.577-10.3L746.577-10.3Q746.777-10.06 747.237-9.94 747.707-9.81 748.237-9.74 748.777-9.67 749.317-9.64 749.847-9.62 750.147-9.62L750.147-9.62Q751.317-9.62 752.657-9.72 753.997-9.81 755.397-9.94 756.787-10.06 758.107-10.23 759.417-10.4 760.547-10.55ZM805.167-14.5L805.167-14.5Q805.167-13.18 805.167-11.84 805.167-10.5 805.077-9.18L805.077-9.18 794.187-8.5Q794.377-11.04 794.497-13.53 794.627-16.02 794.627-18.6L794.627-18.6Q794.627-18.85 794.627-19.43 794.627-20.02 794.577-20.68 794.527-21.34 794.477-21.92 794.427-22.51 794.377-22.75L794.377-22.75Q794.137-23.44 793.867-23.93 793.597-24.41 793.237-24.71 792.867-25 792.327-25.12 791.797-25.24 791.007-25.24L791.007-25.24Q790.427-25.24 789.517-25.15 788.617-25.05 787.687-24.85 786.767-24.66 785.937-24.37 785.107-24.07 784.757-23.68L784.757-23.68 784.667-9.28Q784.567-9.47 784.097-9.47 783.637-9.47 783.447-9.47L783.447-9.47Q781.977-9.47 780.417-9.35 778.857-9.23 777.387-9.03L777.387-9.03Q776.757-14.79 776.267-20.51 775.777-26.22 775.137-31.98L775.137-31.98Q776.117-32.03 777.097-32.06 778.067-32.08 779.047-32.08L779.047-32.08Q780.317-32.08 781.607-32.01 782.907-31.93 784.177-31.88L784.177-31.88 784.517-28.13Q785.887-30.37 788.227-31.88 790.567-33.4 793.257-33.4L793.257-33.4Q794.627-33.4 796.087-33.25 797.557-33.11 798.897-32.67 800.237-32.23 801.437-31.45 802.627-30.66 803.457-29.44L803.457-29.44Q803.857-28.86 804.117-27.71 804.387-26.56 804.587-25.12 804.777-23.68 804.907-22.07 805.027-20.46 805.077-18.99 805.127-17.53 805.147-16.33 805.167-15.14 805.167-14.5ZM838.907-14.5L838.907-14.5Q838.907-13.18 838.907-11.84 838.907-10.5 838.807-9.18L838.807-9.18 827.927-8.5Q828.117-11.04 828.237-13.53 828.357-16.02 828.357-18.6L828.357-18.6Q828.357-18.85 828.357-19.43 828.357-20.02 828.317-20.68 828.267-21.34 828.217-21.92 828.167-22.51 828.117-22.75L828.117-22.75Q827.877-23.44 827.607-23.93 827.337-24.41 826.967-24.71 826.607-25 826.067-25.12 825.527-25.24 824.747-25.24L824.747-25.24Q824.167-25.24 823.257-25.15 822.357-25.05 821.427-24.85 820.497-24.66 819.667-24.37 818.837-24.07 818.497-23.68L818.497-23.68 818.397-9.28Q818.307-9.47 817.837-9.47 817.377-9.47 817.177-9.47L817.177-9.47Q815.717-9.47 814.157-9.35 812.587-9.23 811.127-9.03L811.127-9.03Q810.487-14.79 810.007-20.51 809.517-26.22 808.877-31.98L808.877-31.98Q809.857-32.03 810.837-32.06 811.807-32.08 812.787-32.08L812.787-32.08Q814.057-32.08 815.347-32.01 816.647-31.93 817.917-31.88L817.917-31.88 818.257-28.13Q819.617-30.37 821.967-31.88 824.307-33.4 826.997-33.4L826.997-33.4Q828.357-33.4 829.827-33.25 831.287-33.11 832.637-32.67 833.977-32.23 835.177-31.45 836.367-30.66 837.197-29.44L837.197-29.44Q837.587-28.86 837.857-27.71 838.127-26.56 838.327-25.12 838.517-23.68 838.637-22.07 838.767-20.46 838.807-18.99 838.857-17.53 838.887-16.33 838.907-15.14 838.907-14.5ZM852.427-32.67L852.427-32.67Q852.427-31.69 852.017-30.83 851.597-29.98 850.897-29.35 850.187-28.71 849.307-28.34 848.427-27.98 847.547-27.98L847.547-27.98Q846.577-27.98 845.717-28.42 844.867-28.86 844.227-29.54 843.597-30.22 843.247-31.13 842.907-32.03 842.907-32.96L842.907-32.96Q842.907-33.89 843.277-34.69 843.647-35.5 844.257-36.08 844.867-36.67 845.667-37.01 846.477-37.35 847.407-37.35L847.407-37.35Q848.327-37.35 849.237-36.99 850.137-36.62 850.847-35.96 851.557-35.3 851.997-34.45 852.427-33.59 852.427-32.67ZM854.437-24.37L854.437-24.37Q854.187-21.78 854.047-19.24 853.897-16.7 853.747-14.16L853.747-14.16Q853.557-11.18 853.087-8.25 852.627-5.32 852.037-2.39L852.037-2.39 844.567-1.61Q844.567-3.17 844.597-4.69 844.617-6.2 844.617-7.76L844.617-7.76Q844.617-11.77 844.477-15.77 844.327-19.78 844.177-23.78L844.177-23.78Q846.767-23.88 849.287-24.07 851.797-24.27 854.437-24.37ZM888.467-14.5L888.467-14.5Q888.467-13.18 888.467-11.84 888.467-10.5 888.367-9.18L888.367-9.18 877.477-8.5Q877.677-11.04 877.797-13.53 877.917-16.02 877.917-18.6L877.917-18.6Q877.917-18.85 877.917-19.43 877.917-20.02 877.867-20.68 877.817-21.34 877.767-21.92 877.727-22.51 877.677-22.75L877.677-22.75Q877.427-23.44 877.157-23.93 876.887-24.41 876.527-24.71 876.157-25 875.627-25.12 875.087-25.24 874.307-25.24L874.307-25.24Q873.717-25.24 872.817-25.15 871.907-25.05 870.987-24.85 870.057-24.66 869.227-24.37 868.397-24.07 868.057-23.68L868.057-23.68 867.957-9.28Q867.857-9.47 867.397-9.47 866.927-9.47 866.737-9.47L866.737-9.47Q865.267-9.47 863.707-9.35 862.147-9.23 860.677-9.03L860.677-9.03Q860.047-14.79 859.557-20.51 859.067-26.22 858.437-31.98L858.437-31.98Q859.407-32.03 860.387-32.06 861.367-32.08 862.337-32.08L862.337-32.08Q863.607-32.08 864.907-32.01 866.197-31.93 867.467-31.88L867.467-31.88 867.807-28.13Q869.177-30.37 871.517-31.88 873.867-33.4 876.547-33.4L876.547-33.4Q877.917-33.4 879.387-33.25 880.847-33.11 882.187-32.67 883.537-32.23 884.727-31.45 885.927-30.66 886.757-29.44L886.757-29.44Q887.147-28.86 887.417-27.71 887.687-26.56 887.877-25.12 888.077-23.68 888.197-22.07 888.317-20.46 888.367-18.99 888.417-17.53 888.437-16.33 888.467-15.14 888.467-14.5ZM925.767-17.29L925.767-17.29Q925.767-15.23 925.737-13.21 925.717-11.18 925.717-9.13L925.717-9.13Q925.667-8.06 925.697-6.93 925.717-5.81 925.617-4.69L925.617-4.69Q925.477-3.61 925.327-2.42 925.177-1.22 924.837-0.05 924.497 1.12 923.937 2.15 923.377 3.17 922.447 3.91L922.447 3.91Q922.197 4.1 921.467 4.25 920.737 4.39 919.757 4.54 918.787 4.69 917.657 4.79 916.537 4.88 915.517 4.96 914.487 5.03 913.657 5.1 912.827 5.18 912.487 5.18L912.487 5.18Q909.407 5.27 906.407 5.32 903.407 5.37 900.327 5.37L900.327 5.37 897.197 5.37Q897.107 4.54 897.007 3.66 896.907 2.78 896.907 1.9L896.907 1.9Q896.907 0.93 896.717-0.12 896.517-1.17 896.277-2.2L896.277-2.2 899.497-2.15Q899.787-2.15 901.137-2.17 902.477-2.2 904.287-2.22 906.087-2.25 908.167-2.32 910.237-2.39 911.997-2.54 913.757-2.69 914.997-2.88 916.247-3.08 916.387-3.32L916.387-3.32Q916.787-3.96 916.877-4.76 916.977-5.57 916.977-6.3L916.977-6.3Q916.977-6.69 916.957-7.1 916.927-7.52 916.877-7.91L916.877-7.91Q914.147-7.71 911.457-7.57 908.777-7.42 905.987-7.42L905.987-7.42Q905.357-7.42 904.407-7.42 903.447-7.42 902.447-7.47 901.447-7.52 900.497-7.62 899.547-7.71 898.957-7.91L898.957-7.91Q897.987-8.2 896.987-8.57 895.977-8.94 895.107-9.47 894.227-10.01 893.567-10.77 892.907-11.52 892.657-12.6L892.657-12.6Q892.517-13.13 892.487-13.77 892.467-14.4 892.467-14.94L892.467-14.94Q892.467-16.31 892.617-18.41 892.757-20.51 893.127-22.68 893.487-24.85 894.097-26.78 894.707-28.71 895.637-29.69L895.637-29.69Q896.177-30.27 897.377-30.71 898.567-31.15 900.087-31.45 901.597-31.74 903.277-31.96 904.967-32.18 906.577-32.28 908.187-32.37 909.527-32.42 910.877-32.47 911.657-32.47L911.657-32.47Q914.387-32.47 917.127-32.32L917.127-32.32 917.467-35.45 925.667-34.23Q925.717-29.98 925.737-25.78 925.767-21.58 925.767-17.29ZM917.127-18.21L917.127-18.21Q917.127-19.78 917.077-21.26 917.027-22.75 916.927-24.32L916.927-24.32Q914.777-24.8 912.627-25.1 910.487-25.39 908.237-25.39L908.237-25.39Q907.847-25.39 907.067-25.34 906.287-25.29 905.427-25.17 904.577-25.05 903.847-24.83 903.107-24.61 902.817-24.32L902.817-24.32Q902.377-23.83 902.277-23.19 902.187-22.56 902.187-21.92L902.187-21.92Q902.187-21.39 902.307-20.29 902.427-19.19 902.617-18.02 902.817-16.85 903.107-15.82 903.407-14.79 903.697-14.4L903.697-14.4Q903.987-14.01 904.427-13.82 904.867-13.62 905.377-13.55 905.897-13.48 906.407-13.45 906.917-13.43 907.307-13.43L907.307-13.43Q908.287-13.43 909.677-13.5 911.067-13.57 912.457-13.77 913.857-13.96 915.077-14.33 916.297-14.7 916.927-15.33L916.927-15.33Q917.027-15.38 917.077-15.82 917.127-16.26 917.127-16.75 917.127-17.24 917.127-17.68 917.127-18.12 917.127-18.21Z" fill="#fe633d" data-fill-palette-color="accent"></path><path d="M961.83-28.42L961.83-28.42 961.83-25 952.4-24.51Q952.21-21.68 952.11-18.9 952.01-16.11 952.01-13.33L952.01-13.33Q952.01-9.91 951.84-6.52 951.67-3.13 951.42 0.24L951.42 0.24Q949.67 0.34 947.91 0.42 946.15 0.49 944.39 0.49L944.39 0.49Q943.76 0.49 943.15 0.46 942.54 0.44 941.95 0.44L941.95 0.44Q942.05-2.54 942.12-5.49 942.2-8.45 942.2-11.38L942.2-11.38Q942.2-14.31 942.05-17.26 941.9-20.21 941.71-23.19L941.71-23.19Q940.29-23.14 938.85-23.1 937.41-23.05 935.95-23.05L935.95-23.05Q935.12-23.05 934.31-23.05 933.51-23.05 932.67-23.1L932.67-23.1Q932.53-26.71 932.48-30.27 932.43-33.84 932.38-37.4L932.38-37.4Q939.71-37.26 946.93-36.99 954.16-36.72 961.43-36.52L961.43-36.52Q961.63-34.42 961.73-32.45 961.83-30.47 961.83-28.42ZM1002.11-19.34L1002.11-19.34Q1002.11-18.95 1002.11-18.58 1002.11-18.21 1002.06-17.82L1002.06-17.82Q1002.01-17.14 1001.81-15.58 1001.62-14.01 1001.28-12.33 1000.93-10.64 1000.45-9.23 999.96-7.81 999.37-7.42L999.37-7.42Q999.08-7.23 997.39-7.08 995.71-6.93 993.29-6.79 990.88-6.64 988.04-6.54 985.21-6.45 982.65-6.37 980.08-6.3 978.16-6.25 976.23-6.2 975.59-6.2L975.59-6.2Q975.3-6.2 974.59-6.2 973.88-6.2 973.1-6.23 972.32-6.25 971.64-6.3 970.95-6.35 970.66-6.45L970.66-6.45Q969.98-6.69 969.29-7.25 968.61-7.81 968.02-8.52 967.44-9.23 966.97-9.99 966.51-10.74 966.32-11.43L966.32-11.43Q966.17-11.96 966.07-13.06 965.97-14.16 965.92-15.36 965.88-16.55 965.85-17.68 965.83-18.8 965.83-19.38L965.83-19.38Q965.83-20.31 965.88-21.95 965.92-23.58 966.17-25.29 966.41-27 966.88-28.49 967.34-29.98 968.22-30.57L968.22-30.57Q968.61-30.81 969.68-31.01 970.76-31.2 972.22-31.35 973.69-31.49 975.35-31.57 977.01-31.64 978.6-31.67 980.18-31.69 981.55-31.69 982.92-31.69 983.75-31.64L983.75-31.64Q984.48-31.59 985.85-31.57 987.21-31.54 988.9-31.49 990.58-31.45 992.39-31.32 994.2-31.2 995.76-31.01 997.32-30.81 998.52-30.49 999.71-30.18 1000.1-29.74L1000.1-29.74Q1000.74-29.05 1001.13-27.69 1001.52-26.32 1001.74-24.78 1001.96-23.24 1002.03-21.75 1002.11-20.26 1002.11-19.34ZM991.75-18.31L991.75-18.31Q991.75-18.9 991.71-19.68 991.66-20.46 991.56-21.26 991.46-22.07 991.27-22.83 991.07-23.58 990.78-24.07L990.78-24.07Q990.39-24.71 989.26-25.05 988.14-25.39 986.8-25.56 985.46-25.73 984.16-25.78 982.87-25.83 982.23-25.83L982.23-25.83Q981.89-25.83 981.01-25.81 980.13-25.78 979.18-25.73 978.23-25.68 977.4-25.56 976.57-25.44 976.32-25.29L976.32-25.29Q975.89-25 975.64-24.39 975.4-23.78 975.27-23.05 975.15-22.31 975.13-21.61 975.1-20.9 975.1-20.46L975.1-20.46Q975.1-20.02 975.18-18.87 975.25-17.72 975.37-16.43 975.49-15.14 975.69-14.06 975.89-12.99 976.18-12.7L976.18-12.7Q976.52-12.3 977.47-12.06 978.42-11.82 979.52-11.65 980.62-11.47 981.65-11.4 982.67-11.33 983.11-11.33L983.11-11.33Q983.89-11.33 984.97-11.38 986.04-11.43 987.14-11.62 988.24-11.82 989.22-12.16 990.19-12.5 990.78-13.09L990.78-13.09Q991.12-13.43 991.32-14.11 991.51-14.79 991.61-15.58 991.71-16.36 991.73-17.11 991.75-17.87 991.75-18.31ZM1042.92-19.34L1042.92-19.34Q1042.92-18.95 1042.92-18.58 1042.92-18.21 1042.88-17.82L1042.88-17.82Q1042.83-17.14 1042.63-15.58 1042.44-14.01 1042.09-12.33 1041.75-10.64 1041.26-9.23 1040.78-7.81 1040.19-7.42L1040.19-7.42Q1039.9-7.23 1038.21-7.08 1036.53-6.93 1034.11-6.79 1031.69-6.64 1028.86-6.54 1026.03-6.45 1023.47-6.37 1020.9-6.3 1018.97-6.25 1017.04-6.2 1016.41-6.2L1016.41-6.2Q1016.12-6.2 1015.41-6.2 1014.7-6.2 1013.92-6.23 1013.14-6.25 1012.46-6.3 1011.77-6.35 1011.48-6.45L1011.48-6.45Q1010.79-6.69 1010.11-7.25 1009.43-7.81 1008.84-8.52 1008.26-9.23 1007.79-9.99 1007.33-10.74 1007.13-11.43L1007.13-11.43Q1006.99-11.96 1006.89-13.06 1006.79-14.16 1006.74-15.36 1006.69-16.55 1006.67-17.68 1006.64-18.8 1006.64-19.38L1006.64-19.38Q1006.64-20.31 1006.69-21.95 1006.74-23.58 1006.99-25.29 1007.23-27 1007.69-28.49 1008.16-29.98 1009.04-30.57L1009.04-30.57Q1009.43-30.81 1010.5-31.01 1011.58-31.2 1013.04-31.35 1014.51-31.49 1016.17-31.57 1017.83-31.64 1019.41-31.67 1021-31.69 1022.37-31.69 1023.73-31.69 1024.56-31.64L1024.56-31.64Q1025.3-31.59 1026.66-31.57 1028.03-31.54 1029.72-31.49 1031.4-31.45 1033.21-31.32 1035.01-31.2 1036.58-31.01 1038.14-30.81 1039.33-30.49 1040.53-30.18 1040.92-29.74L1040.92-29.74Q1041.56-29.05 1041.95-27.69 1042.34-26.32 1042.56-24.78 1042.78-23.24 1042.85-21.75 1042.92-20.26 1042.92-19.34ZM1032.57-18.31L1032.57-18.31Q1032.57-18.9 1032.52-19.68 1032.47-20.46 1032.38-21.26 1032.28-22.07 1032.08-22.83 1031.89-23.58 1031.6-24.07L1031.6-24.07Q1031.21-24.71 1030.08-25.05 1028.96-25.39 1027.62-25.56 1026.27-25.73 1024.98-25.78 1023.69-25.83 1023.05-25.83L1023.05-25.83Q1022.71-25.83 1021.83-25.81 1020.95-25.78 1020-25.73 1019.05-25.68 1018.22-25.56 1017.39-25.44 1017.14-25.29L1017.14-25.29Q1016.7-25 1016.46-24.39 1016.21-23.78 1016.09-23.05 1015.97-22.31 1015.95-21.61 1015.92-20.9 1015.92-20.46L1015.92-20.46Q1015.92-20.02 1016-18.87 1016.07-17.72 1016.19-16.43 1016.31-15.14 1016.51-14.06 1016.7-12.99 1017-12.7L1017-12.7Q1017.34-12.3 1018.29-12.06 1019.24-11.82 1020.34-11.65 1021.44-11.47 1022.46-11.4 1023.49-11.33 1023.93-11.33L1023.93-11.33Q1024.71-11.33 1025.79-11.38 1026.86-11.43 1027.96-11.62 1029.06-11.82 1030.03-12.16 1031.01-12.5 1031.6-13.09L1031.6-13.09Q1031.94-13.43 1032.13-14.11 1032.33-14.79 1032.43-15.58 1032.52-16.36 1032.55-17.11 1032.57-17.87 1032.57-18.31ZM1047.46-36.52L1058.35-37.55Q1057.96-32.81 1057.59-28.13 1057.23-23.44 1056.98-18.7L1056.98-18.7Q1056.74-14.4 1056.47-10.18 1056.2-5.96 1055.96-1.66L1055.96-1.66 1048.49-1.27Q1048.49-5.71 1048.51-10.08 1048.54-14.45 1048.44-18.9L1048.44-18.9Q1048.34-23.34 1048.05-27.71 1047.76-32.08 1047.46-36.52L1047.46-36.52ZM1095.8-26.9L1095.8-26.9 1083.25-17.82Q1083.4-17.24 1083.84-15.94 1084.28-14.65 1084.81-13.26 1085.35-11.87 1085.96-10.67 1086.57-9.47 1087.11-9.13L1087.11-9.13Q1087.45-8.89 1087.99-8.74 1088.52-8.59 1089.09-8.5 1089.65-8.4 1090.21-8.37 1090.77-8.35 1091.16-8.35L1091.16-8.35Q1091.84-8.35 1092.58-8.4 1093.31-8.45 1093.99-8.54L1093.99-8.54Q1093.9-7.91 1093.85-7.25 1093.8-6.59 1093.8-5.91L1093.8-5.91Q1093.8-4.74 1093.85-3.56 1093.9-2.39 1093.9-1.27L1093.9-1.27Q1093.55-1.22 1092.7-1.15 1091.84-1.07 1090.75-1 1089.65-0.93 1088.43-0.83 1087.21-0.73 1086.16-0.66 1085.11-0.59 1084.35-0.59 1083.59-0.59 1083.4-0.68L1083.4-0.68Q1082.57-1.07 1081.79-1.51 1081-1.95 1080.47-2.73L1080.47-2.73Q1080.22-3.08 1079.66-4.59 1079.1-6.1 1078.49-7.91 1077.88-9.72 1077.37-11.28 1076.85-12.84 1076.71-13.28L1076.71-13.28 1072.02-10.25 1072.02-1.76 1062.35-0.93Q1062.65-7.76 1062.99-14.53 1063.33-21.29 1063.33-28.17L1063.33-28.17Q1063.33-30.27 1063.3-32.32 1063.28-34.38 1063.23-36.52L1063.23-36.52Q1065.23-36.13 1067.21-36.04 1069.19-35.94 1071.19-35.74L1071.19-35.74 1071.19-17.48Q1075-19.82 1078.64-22.27 1082.27-24.71 1085.69-27.64L1085.69-27.64Q1088.28-27.34 1090.75-27.2 1093.21-27.05 1095.8-26.9ZM1104.83-32.67L1104.83-32.67Q1104.83-31.69 1104.42-30.83 1104-29.98 1103.29-29.35 1102.58-28.71 1101.71-28.34 1100.83-27.98 1099.95-27.98L1099.95-27.98Q1098.97-27.98 1098.12-28.42 1097.26-28.86 1096.63-29.54 1095.99-30.22 1095.65-31.13 1095.31-32.03 1095.31-32.96L1095.31-32.96Q1095.31-33.89 1095.68-34.69 1096.04-35.5 1096.65-36.08 1097.26-36.67 1098.07-37.01 1098.87-37.35 1099.8-37.35L1099.8-37.35Q1100.73-37.35 1101.63-36.99 1102.54-36.62 1103.24-35.96 1103.95-35.3 1104.39-34.45 1104.83-33.59 1104.83-32.67ZM1106.83-24.37L1106.83-24.37Q1106.59-21.78 1106.44-19.24 1106.3-16.7 1106.15-14.16L1106.15-14.16Q1105.95-11.18 1105.49-8.25 1105.03-5.32 1104.44-2.39L1104.44-2.39 1096.97-1.61Q1096.97-3.17 1096.99-4.69 1097.02-6.2 1097.02-7.76L1097.02-7.76Q1097.02-11.77 1096.87-15.77 1096.72-19.78 1096.58-23.78L1096.58-23.78Q1099.17-23.88 1101.68-24.07 1104.2-24.27 1106.83-24.37ZM1136.13-8.64L1136.13-8.64 1135.3-0.05Q1133.73 0.05 1132.17 0.12 1130.61 0.2 1129.05 0.2L1129.05 0.2Q1128.22 0.2 1126.85 0.15 1125.48 0.1 1124.02-0.02 1122.55-0.15 1121.23-0.37 1119.92-0.59 1119.13-0.93L1119.13-0.93Q1117.96-1.46 1117.21-2.34 1116.45-3.22 1115.96-4.27 1115.47-5.32 1115.18-6.52 1114.89-7.71 1114.74-8.89L1114.74-8.89Q1114.59-10.01 1114.52-11.3 1114.45-12.6 1114.42-13.96 1114.4-15.33 1114.4-16.63 1114.4-17.92 1114.4-19.04L1114.4-19.04 1114.4-20.51 1111.37-20.51Q1111.57-22.71 1111.59-24.85 1111.62-27 1111.81-29.2L1111.81-29.2 1114.74-29.1 1114.74-36.33Q1117.52-35.79 1120.28-35.77 1123.04-35.74 1125.82-35.55L1125.82-35.55 1125.73-28.08 1129.83-27.83Q1129.83-27.49 1129.85-27.2 1129.88-26.9 1129.88-26.56L1129.88-26.56Q1129.88-25.2 1129.66-23.9 1129.44-22.61 1129.1-21.29L1129.1-21.29 1125.53-21.29Q1125.43-19.04 1125.38-16.8 1125.34-14.55 1125.34-12.3L1125.34-12.3Q1125.34-11.23 1125.41-10.38 1125.48-9.52 1125.8-8.94 1126.12-8.35 1126.85-8.06 1127.58-7.76 1128.9-7.76L1128.9-7.76Q1130.71-7.76 1132.51-8.01 1134.32-8.25 1136.13-8.64Z" fill="#202046" data-fill-palette-color="primary"></path></g></svg></g></svg></g></svg></g></svg></g><g><svg viewBox="0 0 102.01136954173134 177.2145756056877" height="177.2145756056877" width="102.01136954173134"><g><svg xmlns="http://www.w3.org/2000/svg" xmlns:xlink="http://www.w3.org/1999/xlink" version="1.1" x="8" y="0" viewBox="34.23041915893555 6.052179336547852 41.769657135009766 86.06062316894531" enable-background="new 0 0 100 100" xml:space="preserve" height="177.2145756056877" width="86.01136954173134" class="icon-icon-0" data-fill-palette-color="accent" id="icon-0"><g fill="#fe633d" data-fill-palette-color="accent"><path d="M74.991 83.899c-1.343-1.559-3.247-0.59-3.689-4.647-0.442-4.059-2.951-13.206-2.951-13.206C63.555 45.757 55.365 45.24 54.48 43.175c-0.886-2.065-3.172-3.91-5.312-6.308-2.14-2.398-1.104-5.054-1.104-5.054 1.514-0.591 4.185-2.934 4.185-2.934 0.959-1.917 4.371-3.485 5.699-5.183s1.992-3.467 0.738-4.278c-1.255-0.812-5.165 0-5.165 0-1.11-1.379-3.673-3.385-5.984-4.775-2.14-1.289-3.311-1.128-4.142-2.142-1.604-4.666-3.744-6.234-3.744-6.234-1.033-1.236-2.214 3.265-2.214 3.265s-0.59 1.845-1.622 6.788c-3.837 7.451 0.295 10.033 1.918 14.755s-0.296 12.1-0.296 12.1c-0.295 5.164-2.95 5.017 2.73 20.363 5.681 15.345 2.729 19.402 1.604 19.808-1.125 0.406-3.892 2.472-3.376 4.242 0.518 1.771 10.035 1.107 10.035 1.107 2.508-0.738 5.68 0.295 7.819-0.295 0.074 1.328 0.468 2.508 0.468 2.508 0.173 2.066 5.73 0.959 7.353 0.442 1.624-0.516 2.762-0.194 4.058-0.811 3.321 0.737 5.7-0.886 5.7-0.886C76.688 87.736 76.333 85.459 74.991 83.899zM49.759 83.015c0 0-1.106-5.165 0.738-9.223 0 0-0.738 3.468 1.401 8.189C52.268 82.883 49.759 83.015 49.759 83.015z" fill="#fe633d" data-fill-palette-color="accent"></path></g></svg></g></svg></g></svg></g><defs></defs></svg><rect width="395.52" height="127.67423676731627" fill="none" stroke="none" visibility="hidden"></rect></g></svg></g></svg>